<svg xmlns="http://www.w3.org/2000/svg" xmlns:xlink="http://www.w3.org/1999/xlink" version="1.1" x="0px" y="0px" viewBox="0 0 100 125" enable-background="new 0 0 100 100" xml:space="preserve"><circle cx="37.692" cy="34.974" r="15.385"/><path d="M79.288,53H64.654C68.847,57,72,61.998,72,67.795V71h18v-7.308C90,57.801,85.18,53,79.288,53z"/><path d="M65,76v-8.205C65,61.026,59.846,55,53.077,55h-30.77C15.539,55,10,61.026,10,67.795V76H65z"/><path d="M65.897,21.736c-3.478,0-6.635,1.336-9.015,3.509c1.489,2.927,2.348,6.227,2.348,9.729c0,3.586-0.894,6.963-2.449,9.94  c2.392,2.229,5.59,3.602,9.116,3.602c7.396,0,13.391-5.993,13.391-13.39C79.288,27.731,73.293,21.736,65.897,21.736z"/><text x="0" y="115" fill="#000000" font-size="5px" font-weight="bold" font-family="'Helvetica Neue', Helvetica, Arial-Unicode, Arial, Sans-serif">Created by Endrian Kolopaking</text><text x="0" y="120" fill="#000000" font-size="5px" font-weight="bold" font-family="'Helvetica Neue', Helvetica, Arial-Unicode, Arial, Sans-serif">from the Noun Project</text></svg>